<?xml version="1.0" encoding="UTF-8" standalone="no"?>
<svg
   viewBox="0 0 500 500"
   version="1.1"
   id="svg17"
   xmlns="http://www.w3.org/2000/svg"
   xmlns:svg="http://www.w3.org/2000/svg">
  <defs
     id="defs17" />
  <g
     id="g18"
     transform="matrix(2.1179252,0,0,2.1179252,-387.73906,-383.91607)">
    <g
       id="freepik--speech-bubble--inject-51">
      <g
         id="g15">
        <ellipse
           cx="342.63"
           cy="416.23999"
           rx="18.07"
           ry="1.11"
           style="fill:#e6e6e6"
           id="ellipse1" />
        <g
           id="freepik--group--inject-51">
          <rect
             x="192.03999"
             y="245.03"
             width="213.64999"
             height="144.96001"
             rx="27.84"
             transform="rotate(180,298.865,317.51)"
             style="fill:#263238"
             id="rect1" />
          <polygon
             id="freepik--path--inject-51"
             points="327.85,344.26 350.3,416.24 335.35,416.24 304.97,344.26 "
             style="fill:#263238" />
        </g>
        <g
           id="g11">
          <g
             id="g3">
            <rect
               x="409.19"
               y="310.17001"
               width="1"
               height="7.3400002"
               style="fill:#407bff"
               id="rect2" />
            <rect
               x="409.19"
               y="310.17001"
               width="1"
               height="7.3400002"
               style="opacity:0.2"
               id="rect3" />
          </g>
          <g
             id="g5">
            <rect
               x="409.19"
               y="278.88"
               width="1"
               height="26.280001"
               style="fill:#407bff"
               id="rect4" />
            <rect
               x="409.19"
               y="278.88"
               width="1"
               height="26.280001"
               style="opacity:0.2"
               id="rect5" />
          </g>
          <g
             id="g7">
            <rect
               x="269.57999"
               y="240.53"
               width="13.56"
               height="1"
               style="fill:#407bff"
               id="rect6" />
            <rect
               x="269.57999"
               y="240.53"
               width="13.56"
               height="1"
               style="opacity:0.2"
               id="rect7" />
          </g>
          <g
             id="g8">
            <polygon
               points="391.44,344.26 350.27,416.24 319.89,344.26 "
               style="fill:#407bff"
               id="polygon7" />
            <polygon
               points="391.45,344.26 350.28,416.24 319.9,344.26 "
               style="opacity:0.2"
               id="polygon8" />
          </g>
          <g
             id="g9">
            <rect
               id="freepik--rectangle--inject-51"
               x="204.62"
               y="245.03"
               width="201.08"
               height="144.96001"
               rx="27.84"
               transform="rotate(180,305.155,317.51)"
               style="fill:#407bff" />
            <rect
               id="rect8"
               x="204.62"
               y="245.03"
               width="201.08"
               height="144.96001"
               rx="27.84"
               transform="rotate(180,305.155,317.51)"
               style="opacity:0.2" />
          </g>
          <g
             id="g10">
            <polygon
               points="310.9,245.03 282.75,389.99 256.15,389.99 284.29,245.03 "
               style="opacity:0.7;fill:#407bff"
               id="polygon9" />
            <polygon
               points="334.92,245.03 306.78,389.99 291.65,389.99 319.8,245.03 "
               style="opacity:0.7;fill:#407bff"
               id="polygon10" />
          </g>
        </g>
        <g
           id="g14">
          <path
             id="path11"
             d="M 369.62,291.8 H 295.7 a 7.72,7.72 0 0 1 0,-15.43 h 73.92 a 7.72,7.72 0 1 1 0,15.43 z"
             style="fill:#ffffff" />
          <path
             id="path12"
             d="m 270.37,291.8 h -33.48 a 7.72,7.72 0 0 1 0,-15.43 h 33.48 a 7.72,7.72 0 1 1 0,15.43 z"
             style="fill:#ffffff" />
          <path
             id="path13"
             d="M 369.62,324.32 H 244.74 a 7.72,7.72 0 0 1 0,-15.43 h 124.88 a 7.72,7.72 0 1 1 0,15.43 z"
             style="fill:#ffffff" />
          <path
             id="path14"
             d="m 369.62,356.83 h -57.85 a 7.72,7.72 0 0 1 0,-15.43 h 57.85 a 7.72,7.72 0 1 1 0,15.43 z"
             style="fill:#ffffff" />
        </g>
        <path
           id="path15"
           d="m 240.72,245 c 0,0 -11.06,59.8 -11.06,85.06 0,25.91 9.14,59.9 9.14,59.9 h -29.21 l -1.93,-32.81 a 292,292 0 0 1 9,-91.2 l 5.48,-21 z"
           style="opacity:0.1" />
      </g>
    </g>
    <g
       id="freepik--quotation-marks--inject-51">
      <g
         id="g17">
        <path
           d="m 297.8,181.27 a 16.73,16.73 0 0 0 -2.36,33.3 17.12,17.12 0 0 1 -4.16,11.53 c 0,0 23.26,-5.79 23.26,-28.09 A 16.74,16.74 0 0 0 297.8,181.27 Z"
           style="fill:#407bff"
           id="path16" />
        <path
           d="m 335.47,181.27 a 16.73,16.73 0 0 0 -2.36,33.3 17.12,17.12 0 0 1 -4.11,11.53 c 0,0 23.26,-5.79 23.26,-28.09 a 16.73,16.73 0 0 0 -16.79,-16.74 z"
           style="fill:#407bff"
           id="path17" />
      </g>
    </g>
  </g>
</svg>
